<?xml version="1.0" standalone="no"?>
<!DOCTYPE svg PUBLIC "-//W3C//DTD SVG 20010904//EN"
 "http://www.w3.org/TR/2001/REC-SVG-20010904/DTD/svg10.dtd">
<svg version="1.0" xmlns="http://www.w3.org/2000/svg"
 width="300.000000pt" height="300.000000pt" viewBox="0 0 300.000000 300.000000"
 preserveAspectRatio="xMidYMid meet">
<metadata>
Created by potrace 1.14, written by Peter Selinger 2001-2017
</metadata>
<g transform="translate(0.000000,300.000000) scale(0.100000,-0.100000)"
fill="#000000" stroke="none">
<path d="M2080 2119 c-54 -10 -89 -26 -155 -74 -162 -115 -215 -244 -180 -438
38 -219 267 -380 478 -336 117 25 245 126 303 240 57 113 71 285 29 373 -23
49 -109 137 -170 176 -85 53 -211 77 -305 59z"/>
<path d="M1650 2043 c-99 -68 -144 -186 -106 -277 13 -31 50 -56 62 -43 3 3
17 -1 31 -8 15 -8 34 -10 47 -6 28 11 47 50 35 72 -24 46 -7 92 58 155 37 36
38 42 21 79 -11 25 -14 27 -58 30 -14 1 -34 4 -45 8 -13 4 -30 0 -45 -10z"/>
<path d="M457 1823 c-22 -25 -22 -66 1 -85 9 -9 39 -19 66 -23 143 -18 316
-110 447 -236 108 -105 287 -348 261 -357 -12 -4 -21 -12 -50 -47 -7 -8 -26
-15 -42 -15 -17 0 -39 -9 -50 -20 -21 -21 -27 -65 -10 -75 7 -4 5 -13 -3 -26
-15 -21 -12 -63 7 -78 19 -16 49 -15 129 3 86 20 142 16 161 -10 26 -35 92
-12 108 38 3 8 28 13 68 14 53 1 66 5 80 24 16 22 16 65 -1 75 -4 3 0 19 9 35
32 55 -22 98 -91 74 -37 -13 -97 -11 -97 3 0 12 71 101 112 139 52 49 148 124
158 124 12 0 30 59 23 76 -7 18 -35 34 -62 34 -45 0 -258 -187 -308 -270 -9
-16 -20 -30 -23 -30 -3 0 -27 35 -54 78 -97 151 -224 293 -344 386 -121 92
-294 168 -417 181 -52 6 -63 4 -78 -12z"/>
</g>
</svg>
